<mxfile host="app.diagrams.net" modified="2022-04-12T02:42:16.633Z" agent="5.0 (Macintosh)" etag="kA6ce1_FCYpuVdpC32dm" version="17.4.2" type="github">
  <diagram id="GfUnNTJvpRIC29p2By72" name="Page-1">
    <mxGraphModel dx="946" dy="525" grid="1" gridSize="10" guides="1" tooltips="1" connect="1" arrows="1" fold="1" page="1" pageScale="1" pageWidth="827" pageHeight="1169" math="0" shadow="0">
      <root>
        <mxCell id="0" />
        <mxCell id="1" parent="0" />
        <mxCell id="PNUO_cMGpL7IBdXQBsim-5" value="" style="edgeStyle=orthogonalEdgeStyle;rounded=0;orthogonalLoop=1;jettySize=auto;html=1;" edge="1" parent="1" source="PNUO_cMGpL7IBdXQBsim-2" target="PNUO_cMGpL7IBdXQBsim-4">
          <mxGeometry relative="1" as="geometry" />
        </mxCell>
        <mxCell id="PNUO_cMGpL7IBdXQBsim-2" value="front" style="rounded=1;whiteSpace=wrap;html=1;" vertex="1" parent="1">
          <mxGeometry x="210" y="70" width="350" height="30" as="geometry" />
        </mxCell>
        <mxCell id="PNUO_cMGpL7IBdXQBsim-7" value="" style="edgeStyle=orthogonalEdgeStyle;rounded=0;orthogonalLoop=1;jettySize=auto;html=1;" edge="1" parent="1" source="PNUO_cMGpL7IBdXQBsim-4" target="PNUO_cMGpL7IBdXQBsim-6">
          <mxGeometry relative="1" as="geometry">
            <Array as="points">
              <mxPoint x="260" y="195" />
              <mxPoint x="210" y="195" />
            </Array>
          </mxGeometry>
        </mxCell>
        <mxCell id="PNUO_cMGpL7IBdXQBsim-9" value="" style="edgeStyle=orthogonalEdgeStyle;rounded=0;orthogonalLoop=1;jettySize=auto;html=1;" edge="1" parent="1" source="PNUO_cMGpL7IBdXQBsim-4" target="PNUO_cMGpL7IBdXQBsim-8">
          <mxGeometry relative="1" as="geometry">
            <Array as="points">
              <mxPoint x="340" y="195" />
              <mxPoint x="370" y="195" />
            </Array>
          </mxGeometry>
        </mxCell>
        <mxCell id="PNUO_cMGpL7IBdXQBsim-13" value="" style="edgeStyle=orthogonalEdgeStyle;rounded=0;orthogonalLoop=1;jettySize=auto;html=1;" edge="1" parent="1" source="PNUO_cMGpL7IBdXQBsim-4" target="PNUO_cMGpL7IBdXQBsim-12">
          <mxGeometry relative="1" as="geometry" />
        </mxCell>
        <mxCell id="PNUO_cMGpL7IBdXQBsim-4" value="api-getway" style="rounded=1;whiteSpace=wrap;html=1;" vertex="1" parent="1">
          <mxGeometry x="210" y="130" width="350" height="20" as="geometry" />
        </mxCell>
        <mxCell id="PNUO_cMGpL7IBdXQBsim-19" value="" style="edgeStyle=orthogonalEdgeStyle;rounded=0;orthogonalLoop=1;jettySize=auto;html=1;" edge="1" parent="1" source="PNUO_cMGpL7IBdXQBsim-6" target="PNUO_cMGpL7IBdXQBsim-18">
          <mxGeometry relative="1" as="geometry" />
        </mxCell>
        <mxCell id="PNUO_cMGpL7IBdXQBsim-23" style="edgeStyle=orthogonalEdgeStyle;rounded=0;orthogonalLoop=1;jettySize=auto;html=1;" edge="1" parent="1" source="PNUO_cMGpL7IBdXQBsim-6" target="PNUO_cMGpL7IBdXQBsim-16">
          <mxGeometry relative="1" as="geometry">
            <mxPoint x="220" y="330" as="targetPoint" />
            <Array as="points">
              <mxPoint x="210" y="320" />
              <mxPoint x="330" y="320" />
              <mxPoint x="330" y="330" />
              <mxPoint x="370" y="330" />
            </Array>
          </mxGeometry>
        </mxCell>
        <mxCell id="PNUO_cMGpL7IBdXQBsim-6" value="application" style="whiteSpace=wrap;html=1;rounded=1;" vertex="1" parent="1">
          <mxGeometry x="150" y="240" width="120" height="60" as="geometry" />
        </mxCell>
        <mxCell id="PNUO_cMGpL7IBdXQBsim-17" value="" style="edgeStyle=orthogonalEdgeStyle;rounded=0;orthogonalLoop=1;jettySize=auto;html=1;" edge="1" parent="1" source="PNUO_cMGpL7IBdXQBsim-8" target="PNUO_cMGpL7IBdXQBsim-16">
          <mxGeometry relative="1" as="geometry" />
        </mxCell>
        <mxCell id="PNUO_cMGpL7IBdXQBsim-8" value="application" style="whiteSpace=wrap;html=1;rounded=1;" vertex="1" parent="1">
          <mxGeometry x="310" y="240" width="120" height="60" as="geometry" />
        </mxCell>
        <mxCell id="PNUO_cMGpL7IBdXQBsim-21" value="" style="edgeStyle=orthogonalEdgeStyle;rounded=0;orthogonalLoop=1;jettySize=auto;html=1;" edge="1" parent="1" source="PNUO_cMGpL7IBdXQBsim-12" target="PNUO_cMGpL7IBdXQBsim-20">
          <mxGeometry relative="1" as="geometry" />
        </mxCell>
        <mxCell id="PNUO_cMGpL7IBdXQBsim-22" style="edgeStyle=orthogonalEdgeStyle;rounded=0;orthogonalLoop=1;jettySize=auto;html=1;entryX=0.5;entryY=0;entryDx=0;entryDy=0;" edge="1" parent="1" source="PNUO_cMGpL7IBdXQBsim-12" target="PNUO_cMGpL7IBdXQBsim-16">
          <mxGeometry relative="1" as="geometry">
            <Array as="points">
              <mxPoint x="640" y="330" />
              <mxPoint x="370" y="330" />
            </Array>
          </mxGeometry>
        </mxCell>
        <mxCell id="PNUO_cMGpL7IBdXQBsim-12" value="application" style="whiteSpace=wrap;html=1;rounded=1;" vertex="1" parent="1">
          <mxGeometry x="500" y="240" width="120" height="60" as="geometry" />
        </mxCell>
        <mxCell id="PNUO_cMGpL7IBdXQBsim-16" value="pgsql" style="ellipse;whiteSpace=wrap;html=1;rounded=1;" vertex="1" parent="1">
          <mxGeometry x="310" y="390" width="120" height="60" as="geometry" />
        </mxCell>
        <mxCell id="PNUO_cMGpL7IBdXQBsim-18" value="es" style="ellipse;whiteSpace=wrap;html=1;rounded=1;" vertex="1" parent="1">
          <mxGeometry x="150" y="390" width="120" height="60" as="geometry" />
        </mxCell>
        <mxCell id="PNUO_cMGpL7IBdXQBsim-20" value="redis" style="ellipse;whiteSpace=wrap;html=1;rounded=1;" vertex="1" parent="1">
          <mxGeometry x="470" y="390" width="120" height="60" as="geometry" />
        </mxCell>
      </root>
    </mxGraphModel>
  </diagram>
</mxfile>
